
Genre: Comedy | Drama | Sport
Language:English
IMDb:  http://www.imdb.com/title/tt1736552/
Source:DVD Thanks!
Encoder:Tony 
http://imghost.tehnicadmin.ro/images/48316535902679703496.png 
http://imghost.tehnicadmin.ro/images/90521655888004468175.png
Format : AVI
Format/Info : Audio Video Interleave
File size : 1.44 GiB
Duration : 1h 40mn
Overall bit rate : 2 054 Kbps

Video
ID : 0
Format : MPEG-4 Visual
Format profile : Advanced Simple@L5
Format settings, BVOP : 1
Format settings, QPel : No
Format settings, GMC : No warppoints
Format settings, Matrix : Default (H.263)
Codec ID : XVID
Codec ID/Hint : XviD
Duration : 1h 40mn
Bit rate : 1 597 Kbps
Width : 640 pixels
Height : 344 pixels
Display aspect ratio : 1.860
Frame rate : 23.976 fps
Color space : YUV
Chroma subsampling : 4:2:0
Bit depth : 8 bits
Scan type : Progressive
Compression mode : Lossy
Bits/(Pixel*Frame) : 0.302
Stream size : 1.12 GiB (78%)
Writing library : XviD 1.2.1

Audio
ID : 1
Format : AC-3
Format/Info : Audio Coding 3
Mode extension : CM (complete main)
Codec ID : 2000
Duration : 1h 40mn
Bit rate mode : Constant
Bit rate : 448 Kbps
Channel(s) : 6 channels
Channel positions : Front: L C R, Side: L R, LFE
Sampling rate : 48.0 KHz
Bit depth : 16 bits
Compression mode : Lossy
Stream size : 322 MiB (22%)
Alignment : Aligned on interleaves
Interleave, duration : 42 ms (1.00 video frame)
Interleave, preload duration : 512 ms


Plot:
An ethnic Canadian hockey player struggles against traditional family values and discrimination from mainstream hockey players.
